# xmcd
#
# Track frame offsets: 
#        150
#        27140
#        45102
#        60790
#        78690
#        100990
#        119427
#        138430
#        156425
#        193552
#        216340
#        251115
#
# Disc length: 3645 seconds
#
# Revision: 2
# Processed by: cddbd v1.5.2PL0 Copyright (c) Steve Scherf et al.
# Submitted via: ExactAudioCopy v1.0b1
#
DISCID=a10e3b0c
DTITLE=Lorraine Johnson - The More You Want and Learning To Dance All Ov
DTITLE=er Again
DYEAR=1995
DGENRE=Soul
TTITLE0=The More I Get The More I Want
TTITLE1=Let Your Love Fall Like Rain
TTITLE2=If You Leave Me Now
TTITLE3=Save Me Your Love
TTITLE4=Just For The Moment
TTITLE5=The Next Time I Cry
TTITLE6=If You Don't Leave Her (When You Gonna Leave Her)
TTITLE7=My Sweet Baby
TTITLE8=I'm Learning To Dance All Over Again
TTITLE9=Nobody's Wrong
TTITLE10=Feed The Flame
TTITLE11=Who Do You Think You're Fooling
EXTD=YEAR: 1977
EXTT0=
EXTT1=
EXTT2=
EXTT3=
EXTT4=
EXTT5=
EXTT6=
EXTT7=
EXTT8=
EXTT9=
EXTT10=
EXTT11=
PLAYORDER=
